<svg width="current" height="current" viewBox="0 0 24 30" fill="currentColor"
    xmlns="http://www.w3.org/2000/svg">
    <path fill-rule="evenodd" clip-rule="evenodd" d="M24 17.04C24 20.4847 22.5515 23.5908 20.2309 25.7811L21.1224 27.3268C21.5529 28.0733 21.2971 29.028 20.551 29.4592C19.8049 29.8904 18.8509 29.6348 18.4204 28.8883L17.6884 27.6193C15.9956 28.5333 14.0583 29.052 12 29.052C9.88667 29.052 7.90093 28.5052 6.17631 27.5452L5.40161 28.8883C4.97104 29.6348 4.01714 29.8904 3.271 29.4592C2.52486 29.028 2.26904 28.0733 2.69961 27.3268L3.65439 25.6714C1.40089 23.4877 0 20.4276 0 17.04H24Z" fill="white"/>
    <path fill-rule="evenodd" clip-rule="evenodd" d="M11.8125 15.0769C13.78 15.0769 15.375 13.5204 15.375 11.6004C15.375 9.87049 14.5102 7.93293 13.6328 5.96704C12.7294 3.94282 11.8125 1.88855 11.8125 0C11.8125 2.06307 10.7167 4.66818 9.74053 6.9887C8.95667 8.85215 8.25 10.5321 8.25 11.6004C8.25 13.5204 9.84499 15.0769 11.8125 15.0769ZM3.37806 11.7369C2.27887 13.2821 3.83605 14.9562 4.75204 15.6C3.33382 12.694 4.39773 12.1613 5.59038 11.5641C6.50716 11.105 7.5 10.6079 7.5 8.96546C7.5 6.78193 4.63754 6.33403 3.37806 6.19406C3.37806 6.19406 5.18141 7.06747 5.18141 8.54555C5.18141 9.31049 4.93403 9.63997 4.21397 10.599C3.98537 10.9035 3.70914 11.2714 3.37806 11.7369ZM20.6219 11.7369C21.7211 13.2821 20.1639 14.9562 19.248 15.6C20.6662 12.694 19.6023 12.1613 18.4096 11.5641C17.4928 11.105 16.5 10.6079 16.5 8.96546C16.5 6.78193 19.3625 6.33403 20.6219 6.19406C20.6219 6.19406 18.8186 7.06747 18.8186 8.54555C18.8186 9.31049 19.066 9.63997 19.786 10.599L19.7861 10.5991C20.0147 10.9035 20.2909 11.2714 20.6219 11.7369Z" fill="current"/>
</svg>
