<svg width="50" height="50" viewBox="0 0 50 50" fill="none" xmlns="http://www.w3.org/2000/svg">
<rect width="50" height="50" rx="10" fill="#F5F5F5"/>
<path d="M24.2987 8.32919C24.6915 7.71067 25.5942 7.71067 25.987 8.32919L36.4154 24.7496C36.8382 25.4154 36.3599 26.2857 35.5712 26.2857H14.7145C13.9258 26.2857 13.4475 25.4154 13.8703 24.7496L24.2987 8.32919Z" fill="#363642"/>
<path d="M12.3809 31.5156H19.3301V32.9688H16.7285V40H14.9883V32.9688H12.3809V31.5156ZM27.8145 35.7578C27.8145 36.6562 27.6426 37.4355 27.2988 38.0957C26.959 38.752 26.4883 39.2539 25.8867 39.6016C25.2891 39.9453 24.6113 40.1172 23.8535 40.1172C23.0957 40.1172 22.416 39.9453 21.8145 39.6016C21.2168 39.2539 20.7461 38.75 20.4023 38.0898C20.0625 37.4297 19.8926 36.6523 19.8926 35.7578C19.8926 34.8516 20.0625 34.0703 20.4023 33.4141C20.7461 32.7578 21.2168 32.2578 21.8145 31.9141C22.416 31.5703 23.0957 31.3984 23.8535 31.3984C24.6113 31.3984 25.2891 31.5703 25.8867 31.9141C26.4883 32.2578 26.959 32.7578 27.2988 33.4141C27.6426 34.0703 27.8145 34.8516 27.8145 35.7578ZM26.0332 35.7578C26.0332 35.1602 25.9434 34.6523 25.7637 34.2344C25.5879 33.8164 25.3359 33.5 25.0078 33.2852C24.6836 33.0664 24.2988 32.957 23.8535 32.957C23.4121 32.957 23.0273 33.0664 22.6992 33.2852C22.375 33.5 22.123 33.8164 21.9434 34.2344C21.7637 34.6523 21.6738 35.1602 21.6738 35.7578C21.6738 36.3555 21.7637 36.8633 21.9434 37.2812C22.123 37.6992 22.375 38.0176 22.6992 38.2363C23.0273 38.4512 23.4121 38.5586 23.8535 38.5586C24.2988 38.5586 24.6836 38.4512 25.0078 38.2363C25.3359 38.0176 25.5879 37.6992 25.7637 37.2812C25.9434 36.8633 26.0332 36.3555 26.0332 35.7578ZM29.0918 31.5156H32.4082C33.041 31.5156 33.5859 31.6367 34.043 31.8789C34.5039 32.1172 34.8535 32.4531 35.0918 32.8867C35.3301 33.3203 35.4492 33.8184 35.4492 34.3809C35.4492 34.9473 35.3262 35.4453 35.0801 35.875C34.8379 36.3008 34.4844 36.6348 34.0195 36.877C33.5586 37.1152 33.0078 37.2344 32.3672 37.2344H30.2344V35.8164H32.0918C32.4316 35.8164 32.7168 35.7578 32.9473 35.6406C33.1816 35.5195 33.3555 35.3516 33.4688 35.1367C33.582 34.9219 33.6387 34.6699 33.6387 34.3809C33.6387 34.0918 33.582 33.8418 33.4688 33.6309C33.3555 33.416 33.1816 33.252 32.9473 33.1387C32.7168 33.0215 32.4297 32.9629 32.0859 32.9629H30.8496V40H29.0918V31.5156Z" fill="black"/>
</svg>
